<?xml version="1.0" encoding="UTF-8" standalone="no"?>
<!DOCTYPE svg PUBLIC "-//W3C//DTD SVG 1.1//EN"
 "http://www.w3.org/Graphics/SVG/1.1/DTD/svg11.dtd">
<!-- Generated by graphviz version 14.1.2 (0)
 -->
<!-- Title: ShiftLayout Pages: 1 -->
<svg width="1152pt" height="431pt"
 viewBox="0.00 0.00 1152.00 431.00" xmlns="http://www.w3.org/2000/svg" xmlns:xlink="http://www.w3.org/1999/xlink">
<g id="graph0" class="graph" transform="scale(1 1) rotate(0) translate(4 426.5)">
<title>ShiftLayout</title>
<polygon fill="#fafafa" stroke="none" points="-4,4 -4,-426.5 1148,-426.5 1148,4 -4,4"/>
<text xml:space="preserve" text-anchor="middle" x="572" y="-407.1" font-family="Helvetica,sans-Serif" font-size="12.00">Insert &amp; Remove: Memory Movement</text>
<text xml:space="preserve" text-anchor="middle" x="572" y="-392.85" font-family="Helvetica,sans-Serif" font-size="12.00">Post 9: The Cost of Shifting</text>
<g id="clust1" class="cluster">
<title>cluster_insert</title>
<path fill="#fafafa" stroke="#1565c0" stroke-width="2" d="M20,-8C20,-8 328,-8 328,-8 334,-8 340,-14 340,-20 340,-20 340,-327 340,-327 340,-333 334,-339 328,-339 328,-339 20,-339 20,-339 14,-339 8,-333 8,-327 8,-327 8,-20 8,-20 8,-14 14,-8 20,-8"/>
<text xml:space="preserve" text-anchor="middle" x="174" y="-324.55" font-family="Helvetica,sans-Serif" font-size="11.00">array_insert(arr, 2, &amp;val_25)</text>
</g>
<g id="clust2" class="cluster">
<title>cluster_remove</title>
<path fill="#fafafa" stroke="#c62828" stroke-width="2" d="M365,-8C365,-8 790,-8 790,-8 796,-8 802,-14 802,-20 802,-20 802,-327 802,-327 802,-333 796,-339 790,-339 790,-339 365,-339 365,-339 359,-339 353,-333 353,-327 353,-327 353,-20 353,-20 353,-14 359,-8 365,-8"/>
<text xml:space="preserve" text-anchor="middle" x="577.5" y="-324.55" font-family="Helvetica,sans-Serif" font-size="11.00">array_remove(arr, 1) &#160;vs &#160;array_swap_remove(arr, 1)</text>
</g>
<g id="clust3" class="cluster">
<title>cluster_cost</title>
<path fill="#fafafa" stroke="#616161" d="M822,-220C822,-220 1124,-220 1124,-220 1130,-220 1136,-226 1136,-232 1136,-232 1136,-366 1136,-366 1136,-372 1130,-378 1124,-378 1124,-378 822,-378 822,-378 816,-378 810,-372 810,-366 810,-366 810,-232 810,-232 810,-226 816,-220 822,-220"/>
<text xml:space="preserve" text-anchor="middle" x="973" y="-363.55" font-family="Helvetica,sans-Serif" font-size="11.00">Cost Comparison (4&#45;byte elements)</text>
</g>
<!-- ins_before -->
<g id="node1" class="node">
<title>ins_before</title>
<polygon fill="#e3f2fd" stroke="black" points="45,-267.5 45,-309 303,-309 303,-267.5 45,-267.5"/>
<text xml:space="preserve" text-anchor="middle" x="174" y="-295.5" font-family="Helvetica,sans-Serif" font-size="10.00">BEFORE (size=5)</text>
<polyline fill="none" stroke="black" points="45,-288.25 303,-288.25"/>
<text xml:space="preserve" text-anchor="middle" x="67.25" y="-274.75" font-family="Helvetica,sans-Serif" font-size="10.00">[0] 10</text>
<polyline fill="none" stroke="black" points="89.5,-267.5 89.5,-288.25"/>
<text xml:space="preserve" text-anchor="middle" x="111.75" y="-274.75" font-family="Helvetica,sans-Serif" font-size="10.00">[1] 20</text>
<polyline fill="none" stroke="black" points="134,-267.5 134,-288.25"/>
<text xml:space="preserve" text-anchor="middle" x="156.25" y="-274.75" font-family="Helvetica,sans-Serif" font-size="10.00">[2] 30</text>
<polyline fill="none" stroke="black" points="178.5,-267.5 178.5,-288.25"/>
<text xml:space="preserve" text-anchor="middle" x="200.75" y="-274.75" font-family="Helvetica,sans-Serif" font-size="10.00">[3] 40</text>
<polyline fill="none" stroke="black" points="223,-267.5 223,-288.25"/>
<text xml:space="preserve" text-anchor="middle" x="245.25" y="-274.75" font-family="Helvetica,sans-Serif" font-size="10.00">[4] 50</text>
<polyline fill="none" stroke="black" points="267.5,-267.5 267.5,-288.25"/>
<text xml:space="preserve" text-anchor="middle" x="285.25" y="-274.75" font-family="Helvetica,sans-Serif" font-size="10.00">[5] ·</text>
</g>
<!-- ins_shift -->
<g id="node2" class="node">
<title>ins_shift</title>
<polygon fill="#fff9c4" stroke="black" points="245.75,-166.38 96.25,-166.38 96.25,-120.12 251.75,-120.12 251.75,-160.38 245.75,-166.38"/>
<polyline fill="none" stroke="black" points="245.75,-166.38 245.75,-160.38"/>
<polyline fill="none" stroke="black" points="251.75,-160.38 245.75,-160.38"/>
<text xml:space="preserve" text-anchor="start" x="104.25" y="-152.88" font-family="Helvetica,sans-Serif" font-size="10.00">memmove: 3 elements right</text>
<text xml:space="preserve" text-anchor="start" x="104.25" y="-140.12" font-family="Helvetica,sans-Serif" font-size="10.00">= 12 bytes shifted</text>
<text xml:space="preserve" text-anchor="start" x="104.25" y="-127.38" font-family="Helvetica,sans-Serif" font-size="10.00">O(n) where n = size &#45; index</text>
</g>
<!-- ins_before&#45;&gt;ins_shift -->
<g id="edge1" class="edge">
<title>ins_before&#45;&gt;ins_shift</title>
<path fill="none" stroke="black" d="M174,-267.06C174,-243.99 174,-205.86 174,-178.2"/>
<polygon fill="black" stroke="black" points="177.5,-178.2 174,-168.2 170.5,-178.2 177.5,-178.2"/>
<text xml:space="preserve" text-anchor="middle" x="210.38" y="-197.45" font-family="Helvetica,sans-Serif" font-size="9.00">shift [2..4] right</text>
</g>
<!-- ins_after -->
<g id="node3" class="node">
<title>ins_after</title>
<polygon fill="#c8e6c9" stroke="black" points="16.5,-16.5 16.5,-58 331.5,-58 331.5,-16.5 16.5,-16.5"/>
<text xml:space="preserve" text-anchor="middle" x="174" y="-44.5" font-family="Helvetica,sans-Serif" font-size="10.00">AFTER (size=6)</text>
<polyline fill="none" stroke="black" points="16.5,-37.25 331.5,-37.25"/>
<text xml:space="preserve" text-anchor="middle" x="38.75" y="-23.75" font-family="Helvetica,sans-Serif" font-size="10.00">[0] 10</text>
<polyline fill="none" stroke="black" points="61,-16.5 61,-37.25"/>
<text xml:space="preserve" text-anchor="middle" x="83.25" y="-23.75" font-family="Helvetica,sans-Serif" font-size="10.00">[1] 20</text>
<polyline fill="none" stroke="black" points="105.5,-16.5 105.5,-37.25"/>
<text xml:space="preserve" text-anchor="middle" x="151.75" y="-23.75" font-family="Helvetica,sans-Serif" font-size="10.00">[2] &lt;b&gt;25&lt;/b&gt;</text>
<polyline fill="none" stroke="black" points="198,-16.5 198,-37.25"/>
<text xml:space="preserve" text-anchor="middle" x="220.25" y="-23.75" font-family="Helvetica,sans-Serif" font-size="10.00">[3] 30</text>
<polyline fill="none" stroke="black" points="242.5,-16.5 242.5,-37.25"/>
<text xml:space="preserve" text-anchor="middle" x="264.75" y="-23.75" font-family="Helvetica,sans-Serif" font-size="10.00">[4] 40</text>
<polyline fill="none" stroke="black" points="287,-16.5 287,-37.25"/>
<text xml:space="preserve" text-anchor="middle" x="309.25" y="-23.75" font-family="Helvetica,sans-Serif" font-size="10.00">[5] 50</text>
</g>
<!-- ins_shift&#45;&gt;ins_after -->
<g id="edge2" class="edge">
<title>ins_shift&#45;&gt;ins_after</title>
<path fill="none" stroke="black" d="M174,-119.68C174,-104.97 174,-85.58 174,-69.41"/>
<polygon fill="black" stroke="black" points="177.5,-69.83 174,-59.83 170.5,-69.83 177.5,-69.83"/>
<text xml:space="preserve" text-anchor="middle" x="207" y="-83.2" font-family="Helvetica,sans-Serif" font-size="9.00">write 25 at [2]</text>
</g>
<!-- rem_before -->
<g id="node4" class="node">
<title>rem_before</title>
<polygon fill="#ffebee" stroke="black" points="448.75,-267.5 448.75,-309 719.25,-309 719.25,-267.5 448.75,-267.5"/>
<text xml:space="preserve" text-anchor="middle" x="584" y="-295.5" font-family="Helvetica,sans-Serif" font-size="10.00">BEFORE (size=5)</text>
<polyline fill="none" stroke="black" points="448.75,-288.25 719.25,-288.25"/>
<text xml:space="preserve" text-anchor="middle" x="471" y="-274.75" font-family="Helvetica,sans-Serif" font-size="10.00">[0] 10</text>
<polyline fill="none" stroke="black" points="493.25,-267.5 493.25,-288.25"/>
<text xml:space="preserve" text-anchor="middle" x="539.5" y="-274.75" font-family="Helvetica,sans-Serif" font-size="10.00">[1] &lt;b&gt;20&lt;/b&gt;</text>
<polyline fill="none" stroke="black" points="585.75,-267.5 585.75,-288.25"/>
<text xml:space="preserve" text-anchor="middle" x="608" y="-274.75" font-family="Helvetica,sans-Serif" font-size="10.00">[2] 30</text>
<polyline fill="none" stroke="black" points="630.25,-267.5 630.25,-288.25"/>
<text xml:space="preserve" text-anchor="middle" x="652.5" y="-274.75" font-family="Helvetica,sans-Serif" font-size="10.00">[3] 40</text>
<polyline fill="none" stroke="black" points="674.75,-267.5 674.75,-288.25"/>
<text xml:space="preserve" text-anchor="middle" x="697" y="-274.75" font-family="Helvetica,sans-Serif" font-size="10.00">[4] 50</text>
</g>
<!-- rem_stable -->
<g id="node5" class="node">
<title>rem_stable</title>
<polygon fill="#fff9c4" stroke="black" points="540.88,-172.75 401.12,-172.75 401.12,-113.75 546.88,-113.75 546.88,-166.75 540.88,-172.75"/>
<polyline fill="none" stroke="black" points="540.88,-172.75 540.88,-166.75"/>
<polyline fill="none" stroke="black" points="546.88,-166.75 540.88,-166.75"/>
<text xml:space="preserve" text-anchor="start" x="409.12" y="-159.25" font-family="Helvetica,sans-Serif" font-size="10.00">STABLE remove:</text>
<text xml:space="preserve" text-anchor="start" x="409.12" y="-146.5" font-family="Helvetica,sans-Serif" font-size="10.00">memmove 3 elements left</text>
<text xml:space="preserve" text-anchor="start" x="409.12" y="-133.75" font-family="Helvetica,sans-Serif" font-size="10.00">= 12 bytes shifted</text>
<text xml:space="preserve" text-anchor="start" x="409.12" y="-121" font-family="Helvetica,sans-Serif" font-size="10.00">Order preserved ✓</text>
</g>
<!-- rem_before&#45;&gt;rem_stable -->
<g id="edge3" class="edge">
<title>rem_before&#45;&gt;rem_stable</title>
<path fill="none" stroke="black" d="M568.47,-267.06C551.55,-245.07 524.1,-209.38 503.14,-182.13"/>
<polygon fill="black" stroke="black" points="506.09,-180.23 497.22,-174.44 500.55,-184.5 506.09,-180.23"/>
<text xml:space="preserve" text-anchor="middle" x="552.15" y="-197.45" font-family="Helvetica,sans-Serif" font-size="9.00">preserve order</text>
</g>
<!-- rem_swap -->
<g id="node7" class="node">
<title>rem_swap</title>
<polygon fill="#e1bee7" stroke="black" points="733.5,-172.75 606.5,-172.75 606.5,-113.75 739.5,-113.75 739.5,-166.75 733.5,-172.75"/>
<polyline fill="none" stroke="black" points="733.5,-172.75 733.5,-166.75"/>
<polyline fill="none" stroke="black" points="739.5,-166.75 733.5,-166.75"/>
<text xml:space="preserve" text-anchor="start" x="614.5" y="-159.25" font-family="Helvetica,sans-Serif" font-size="10.00">SWAP remove:</text>
<text xml:space="preserve" text-anchor="start" x="614.5" y="-146.5" font-family="Helvetica,sans-Serif" font-size="10.00">copy last element to [1]</text>
<text xml:space="preserve" text-anchor="start" x="614.5" y="-133.75" font-family="Helvetica,sans-Serif" font-size="10.00">= 4 bytes copied</text>
<text xml:space="preserve" text-anchor="start" x="614.5" y="-121" font-family="Helvetica,sans-Serif" font-size="10.00">Order BROKEN ✗</text>
</g>
<!-- rem_before&#45;&gt;rem_swap -->
<g id="edge4" class="edge">
<title>rem_before&#45;&gt;rem_swap</title>
<path fill="none" stroke="black" stroke-dasharray="5,2" d="M596.56,-267.06C610.13,-245.26 632.08,-210 648.98,-182.84"/>
<polygon fill="black" stroke="black" points="651.84,-184.87 654.16,-174.53 645.9,-181.17 651.84,-184.87"/>
<text xml:space="preserve" text-anchor="middle" x="670.96" y="-197.45" font-family="Helvetica,sans-Serif" font-size="9.00">O(1) fast path</text>
</g>
<!-- rem_stable_after -->
<g id="node6" class="node">
<title>rem_stable_after</title>
<polygon fill="#c8e6c9" stroke="black" points="361,-16.5 361,-58 539,-58 539,-16.5 361,-16.5"/>
<text xml:space="preserve" text-anchor="middle" x="450" y="-44.5" font-family="Helvetica,sans-Serif" font-size="10.00">AFTER stable (size=4)</text>
<polyline fill="none" stroke="black" points="361,-37.25 539,-37.25"/>
<text xml:space="preserve" text-anchor="middle" x="383.25" y="-23.75" font-family="Helvetica,sans-Serif" font-size="10.00">[0] 10</text>
<polyline fill="none" stroke="black" points="405.5,-16.5 405.5,-37.25"/>
<text xml:space="preserve" text-anchor="middle" x="427.75" y="-23.75" font-family="Helvetica,sans-Serif" font-size="10.00">[1] 30</text>
<polyline fill="none" stroke="black" points="450,-16.5 450,-37.25"/>
<text xml:space="preserve" text-anchor="middle" x="472.25" y="-23.75" font-family="Helvetica,sans-Serif" font-size="10.00">[2] 40</text>
<polyline fill="none" stroke="black" points="494.5,-16.5 494.5,-37.25"/>
<text xml:space="preserve" text-anchor="middle" x="516.75" y="-23.75" font-family="Helvetica,sans-Serif" font-size="10.00">[3] 50</text>
</g>
<!-- rem_stable&#45;&gt;rem_stable_after -->
<g id="edge5" class="edge">
<title>rem_stable&#45;&gt;rem_stable_after</title>
<path fill="none" stroke="black" d="M467.31,-113.28C464.15,-99.57 460.37,-83.18 457.15,-69.22"/>
<polygon fill="black" stroke="black" points="460.6,-68.61 454.94,-59.66 453.78,-70.19 460.6,-68.61"/>
</g>
<!-- rem_swap_after -->
<g id="node8" class="node">
<title>rem_swap_after</title>
<polygon fill="#f3e5f5" stroke="black" points="568,-16.5 568,-58 794,-58 794,-16.5 568,-16.5"/>
<text xml:space="preserve" text-anchor="middle" x="681" y="-44.5" font-family="Helvetica,sans-Serif" font-size="10.00">AFTER swap (size=4)</text>
<polyline fill="none" stroke="black" points="568,-37.25 794,-37.25"/>
<text xml:space="preserve" text-anchor="middle" x="590.25" y="-23.75" font-family="Helvetica,sans-Serif" font-size="10.00">[0] 10</text>
<polyline fill="none" stroke="black" points="612.5,-16.5 612.5,-37.25"/>
<text xml:space="preserve" text-anchor="middle" x="658.75" y="-23.75" font-family="Helvetica,sans-Serif" font-size="10.00">[1] &lt;b&gt;50&lt;/b&gt;</text>
<polyline fill="none" stroke="black" points="705,-16.5 705,-37.25"/>
<text xml:space="preserve" text-anchor="middle" x="727.25" y="-23.75" font-family="Helvetica,sans-Serif" font-size="10.00">[2] 30</text>
<polyline fill="none" stroke="black" points="749.5,-16.5 749.5,-37.25"/>
<text xml:space="preserve" text-anchor="middle" x="771.75" y="-23.75" font-family="Helvetica,sans-Serif" font-size="10.00">[3] 40</text>
</g>
<!-- rem_swap&#45;&gt;rem_swap_after -->
<g id="edge6" class="edge">
<title>rem_swap&#45;&gt;rem_swap_after</title>
<path fill="none" stroke="black" d="M675.23,-113.28C676.27,-99.71 677.52,-83.51 678.59,-69.64"/>
<polygon fill="black" stroke="black" points="682.07,-69.93 679.35,-59.69 675.09,-69.39 682.07,-69.93"/>
</g>
<!-- cost_table -->
<g id="node9" class="node">
<title>cost_table</title>
<polygon fill="#ffffff" stroke="none" points="1128.38,-348.5 817.62,-348.5 817.62,-228 1128.38,-228 1128.38,-348.5"/>
<polygon fill="none" stroke="black" points="825.62,-325.75 825.62,-344.5 970.38,-344.5 970.38,-325.75 825.62,-325.75"/>
<text xml:space="preserve" text-anchor="start" x="869.88" y="-333" font-family="Helvetica,sans-Serif" font-weight="bold" font-size="10.00">Operation</text>
<polygon fill="none" stroke="black" points="970.38,-325.75 970.38,-344.5 1049.88,-344.5 1049.88,-325.75 970.38,-325.75"/>
<text xml:space="preserve" text-anchor="start" x="973.38" y="-333" font-family="Helvetica,sans-Serif" font-weight="bold" font-size="10.00">Bytes moved</text>
<polygon fill="none" stroke="black" points="1049.88,-325.75 1049.88,-344.5 1120.38,-344.5 1120.38,-325.75 1049.88,-325.75"/>
<text xml:space="preserve" text-anchor="start" x="1052.88" y="-333" font-family="Helvetica,sans-Serif" font-weight="bold" font-size="10.00">Complexity</text>
<polygon fill="none" stroke="black" points="825.62,-307 825.62,-325.75 970.38,-325.75 970.38,-307 825.62,-307"/>
<text xml:space="preserve" text-anchor="start" x="840.25" y="-313.25" font-family="Helvetica,sans-Serif" font-size="10.00">insert at front (n=1000)</text>
<polygon fill="none" stroke="black" points="970.38,-307 970.38,-325.75 1049.88,-325.75 1049.88,-307 970.38,-307"/>
<text xml:space="preserve" text-anchor="start" x="998.12" y="-313.25" font-family="Helvetica,sans-Serif" font-size="10.00">4000</text>
<polygon fill="none" stroke="black" points="1049.88,-307 1049.88,-325.75 1120.38,-325.75 1120.38,-307 1049.88,-307"/>
<text xml:space="preserve" text-anchor="start" x="1074.62" y="-313.25" font-family="Helvetica,sans-Serif" font-size="10.00">O(n)</text>
<polygon fill="none" stroke="black" points="825.62,-288.25 825.62,-307 970.38,-307 970.38,-288.25 825.62,-288.25"/>
<text xml:space="preserve" text-anchor="start" x="847.75" y="-294.5" font-family="Helvetica,sans-Serif" font-size="10.00">insert at back (push)</text>
<polygon fill="none" stroke="black" points="970.38,-288.25 970.38,-307 1049.88,-307 1049.88,-288.25 970.38,-288.25"/>
<text xml:space="preserve" text-anchor="start" x="1007.12" y="-294.5" font-family="Helvetica,sans-Serif" font-size="10.00">0</text>
<polygon fill="none" stroke="black" points="1049.88,-288.25 1049.88,-307 1120.38,-307 1120.38,-288.25 1049.88,-288.25"/>
<text xml:space="preserve" text-anchor="start" x="1074.62" y="-294.5" font-family="Helvetica,sans-Serif" font-size="10.00">O(1)</text>
<polygon fill="none" stroke="black" points="825.62,-269.5 825.62,-288.25 970.38,-288.25 970.38,-269.5 825.62,-269.5"/>
<text xml:space="preserve" text-anchor="start" x="828.62" y="-275.75" font-family="Helvetica,sans-Serif" font-size="10.00">remove from front (n=1000)</text>
<polygon fill="none" stroke="black" points="970.38,-269.5 970.38,-288.25 1049.88,-288.25 1049.88,-269.5 970.38,-269.5"/>
<text xml:space="preserve" text-anchor="start" x="998.12" y="-275.75" font-family="Helvetica,sans-Serif" font-size="10.00">3996</text>
<polygon fill="none" stroke="black" points="1049.88,-269.5 1049.88,-288.25 1120.38,-288.25 1120.38,-269.5 1049.88,-269.5"/>
<text xml:space="preserve" text-anchor="start" x="1074.62" y="-275.75" font-family="Helvetica,sans-Serif" font-size="10.00">O(n)</text>
<polygon fill="none" stroke="black" points="825.62,-250.75 825.62,-269.5 970.38,-269.5 970.38,-250.75 825.62,-250.75"/>
<text xml:space="preserve" text-anchor="start" x="838.75" y="-257" font-family="Helvetica,sans-Serif" font-size="10.00">remove from back (pop)</text>
<polygon fill="none" stroke="black" points="970.38,-250.75 970.38,-269.5 1049.88,-269.5 1049.88,-250.75 970.38,-250.75"/>
<text xml:space="preserve" text-anchor="start" x="1007.12" y="-257" font-family="Helvetica,sans-Serif" font-size="10.00">0</text>
<polygon fill="none" stroke="black" points="1049.88,-250.75 1049.88,-269.5 1120.38,-269.5 1120.38,-250.75 1049.88,-250.75"/>
<text xml:space="preserve" text-anchor="start" x="1074.62" y="-257" font-family="Helvetica,sans-Serif" font-size="10.00">O(1)</text>
<polygon fill="none" stroke="black" points="825.62,-232 825.62,-250.75 970.38,-250.75 970.38,-232 825.62,-232"/>
<text xml:space="preserve" text-anchor="start" x="838.38" y="-238.25" font-family="Helvetica,sans-Serif" font-size="10.00">swap_remove anywhere</text>
<polygon fill="none" stroke="black" points="970.38,-232 970.38,-250.75 1049.88,-250.75 1049.88,-232 970.38,-232"/>
<text xml:space="preserve" text-anchor="start" x="1007.12" y="-238.25" font-family="Helvetica,sans-Serif" font-size="10.00">4</text>
<polygon fill="none" stroke="black" points="1049.88,-232 1049.88,-250.75 1120.38,-250.75 1120.38,-232 1049.88,-232"/>
<text xml:space="preserve" text-anchor="start" x="1074.62" y="-238.25" font-family="Helvetica,sans-Serif" font-size="10.00">O(1)</text>
</g>
</g>
</svg>
